<mxfile host="app.diagrams.net" agent="Mozilla/5.0 (Windows NT 10.0; Win64; x64) AppleWebKit/537.36 (KHTML, like Gecko) Chrome/134.0.0.0 Safari/537.36 Edg/134.0.0.0" version="26.0.16" pages="2">
  <diagram name="Линейная свертка" id="K5Avs2HP38aUbaaJo2PH">
    <mxGraphModel dx="913" dy="1008" grid="0" gridSize="10" guides="1" tooltips="1" connect="1" arrows="1" fold="1" page="0" pageScale="1" pageWidth="827" pageHeight="1169" math="0" shadow="0">
      <root>
        <mxCell id="0" />
        <mxCell id="1" parent="0" />
        <mxCell id="LWh4g69PcNr4QW9ISP9D-3" style="edgeStyle=none;curved=1;rounded=0;orthogonalLoop=1;jettySize=auto;html=1;exitX=0.5;exitY=1;exitDx=0;exitDy=0;entryX=0.5;entryY=0;entryDx=0;entryDy=0;fontSize=12;startSize=8;endSize=8;" edge="1" parent="1" source="LWh4g69PcNr4QW9ISP9D-1" target="LWh4g69PcNr4QW9ISP9D-2">
          <mxGeometry relative="1" as="geometry" />
        </mxCell>
        <mxCell id="LWh4g69PcNr4QW9ISP9D-1" value="Начало" style="ellipse;whiteSpace=wrap;html=1;" vertex="1" parent="1">
          <mxGeometry x="134" y="-72" width="64" height="42" as="geometry" />
        </mxCell>
        <mxCell id="LWh4g69PcNr4QW9ISP9D-5" style="edgeStyle=none;curved=1;rounded=0;orthogonalLoop=1;jettySize=auto;html=1;exitX=0.5;exitY=1;exitDx=0;exitDy=0;entryX=0.5;entryY=0;entryDx=0;entryDy=0;fontSize=12;startSize=8;endSize=8;" edge="1" parent="1" source="LWh4g69PcNr4QW9ISP9D-2" target="LWh4g69PcNr4QW9ISP9D-4">
          <mxGeometry relative="1" as="geometry" />
        </mxCell>
        <mxCell id="LWh4g69PcNr4QW9ISP9D-2" value="Ввод сигналов&lt;div&gt;x[n] и h[n]&lt;/div&gt;" style="shape=parallelogram;perimeter=parallelogramPerimeter;whiteSpace=wrap;html=1;fixedSize=1;" vertex="1" parent="1">
          <mxGeometry x="108" y="-16" width="116" height="45" as="geometry" />
        </mxCell>
        <mxCell id="LWh4g69PcNr4QW9ISP9D-7" style="edgeStyle=none;curved=1;rounded=0;orthogonalLoop=1;jettySize=auto;html=1;exitX=0.5;exitY=1;exitDx=0;exitDy=0;entryX=0.5;entryY=0;entryDx=0;entryDy=0;fontSize=12;startSize=8;endSize=8;" edge="1" parent="1" source="LWh4g69PcNr4QW9ISP9D-4" target="LWh4g69PcNr4QW9ISP9D-6">
          <mxGeometry relative="1" as="geometry" />
        </mxCell>
        <mxCell id="LWh4g69PcNr4QW9ISP9D-4" value="Инициализация переменных n=0; y[n]=0" style="rounded=0;whiteSpace=wrap;html=1;" vertex="1" parent="1">
          <mxGeometry x="112" y="43" width="108" height="43" as="geometry" />
        </mxCell>
        <mxCell id="LWh4g69PcNr4QW9ISP9D-9" style="edgeStyle=none;curved=0;rounded=0;orthogonalLoop=1;jettySize=auto;html=1;exitX=0;exitY=0.5;exitDx=0;exitDy=0;entryX=0.5;entryY=0;entryDx=0;entryDy=0;fontSize=12;startSize=8;endSize=8;" edge="1" parent="1" source="LWh4g69PcNr4QW9ISP9D-6" target="LWh4g69PcNr4QW9ISP9D-8">
          <mxGeometry relative="1" as="geometry">
            <Array as="points">
              <mxPoint x="82" y="127" />
            </Array>
          </mxGeometry>
        </mxCell>
        <mxCell id="LWh4g69PcNr4QW9ISP9D-23" style="edgeStyle=none;curved=0;rounded=0;orthogonalLoop=1;jettySize=auto;html=1;exitX=1;exitY=0.5;exitDx=0;exitDy=0;entryX=0.75;entryY=0;entryDx=0;entryDy=0;fontSize=12;startSize=8;endSize=8;" edge="1" parent="1" source="LWh4g69PcNr4QW9ISP9D-6" target="LWh4g69PcNr4QW9ISP9D-22">
          <mxGeometry relative="1" as="geometry">
            <Array as="points">
              <mxPoint x="251" y="127" />
              <mxPoint x="261" y="321" />
              <mxPoint x="225" y="321" />
            </Array>
          </mxGeometry>
        </mxCell>
        <mxCell id="LWh4g69PcNr4QW9ISP9D-6" value="n&amp;lt;N+M-1" style="rhombus;whiteSpace=wrap;html=1;" vertex="1" parent="1">
          <mxGeometry x="125.5" y="103" width="81" height="47" as="geometry" />
        </mxCell>
        <mxCell id="LWh4g69PcNr4QW9ISP9D-13" style="edgeStyle=none;curved=1;rounded=0;orthogonalLoop=1;jettySize=auto;html=1;exitX=0.5;exitY=1;exitDx=0;exitDy=0;fontSize=12;startSize=8;endSize=8;" edge="1" parent="1" source="LWh4g69PcNr4QW9ISP9D-8" target="LWh4g69PcNr4QW9ISP9D-12">
          <mxGeometry relative="1" as="geometry" />
        </mxCell>
        <mxCell id="LWh4g69PcNr4QW9ISP9D-8" value="y[n]=0&lt;div&gt;k=0&lt;/div&gt;" style="rounded=0;whiteSpace=wrap;html=1;" vertex="1" parent="1">
          <mxGeometry x="54" y="160" width="62" height="36" as="geometry" />
        </mxCell>
        <mxCell id="LWh4g69PcNr4QW9ISP9D-10" value="Да" style="text;html=1;align=center;verticalAlign=middle;whiteSpace=wrap;rounded=0;" vertex="1" parent="1">
          <mxGeometry x="63" y="98" width="60" height="30" as="geometry" />
        </mxCell>
        <mxCell id="LWh4g69PcNr4QW9ISP9D-15" style="edgeStyle=none;curved=1;rounded=0;orthogonalLoop=1;jettySize=auto;html=1;exitX=0.5;exitY=1;exitDx=0;exitDy=0;fontSize=12;startSize=8;endSize=8;" edge="1" parent="1" source="LWh4g69PcNr4QW9ISP9D-12" target="LWh4g69PcNr4QW9ISP9D-14">
          <mxGeometry relative="1" as="geometry" />
        </mxCell>
        <mxCell id="LWh4g69PcNr4QW9ISP9D-18" style="edgeStyle=none;curved=0;rounded=0;orthogonalLoop=1;jettySize=auto;html=1;exitX=1;exitY=0.5;exitDx=0;exitDy=0;entryX=0.5;entryY=0;entryDx=0;entryDy=0;fontSize=12;startSize=8;endSize=8;" edge="1" parent="1" source="LWh4g69PcNr4QW9ISP9D-12" target="LWh4g69PcNr4QW9ISP9D-17">
          <mxGeometry relative="1" as="geometry">
            <Array as="points">
              <mxPoint x="188" y="240" />
            </Array>
          </mxGeometry>
        </mxCell>
        <mxCell id="LWh4g69PcNr4QW9ISP9D-12" value="k&amp;lt;M" style="rhombus;whiteSpace=wrap;html=1;" vertex="1" parent="1">
          <mxGeometry x="60" y="217" width="50" height="45" as="geometry" />
        </mxCell>
        <mxCell id="LWh4g69PcNr4QW9ISP9D-16" style="edgeStyle=none;curved=0;rounded=0;orthogonalLoop=1;jettySize=auto;html=1;exitX=0;exitY=0.5;exitDx=0;exitDy=0;entryX=0;entryY=0.5;entryDx=0;entryDy=0;fontSize=12;startSize=8;endSize=8;" edge="1" parent="1" source="LWh4g69PcNr4QW9ISP9D-14" target="LWh4g69PcNr4QW9ISP9D-12">
          <mxGeometry relative="1" as="geometry">
            <Array as="points">
              <mxPoint x="8" y="302" />
              <mxPoint x="8" y="240" />
            </Array>
          </mxGeometry>
        </mxCell>
        <mxCell id="LWh4g69PcNr4QW9ISP9D-14" value="y[n]+=x[k]*h[n-k]&lt;div&gt;k=k+1&lt;/div&gt;" style="rounded=0;whiteSpace=wrap;html=1;" vertex="1" parent="1">
          <mxGeometry x="40" y="283" width="94" height="38" as="geometry" />
        </mxCell>
        <mxCell id="LWh4g69PcNr4QW9ISP9D-17" value="n=n+1" style="rounded=0;whiteSpace=wrap;html=1;" vertex="1" parent="1">
          <mxGeometry x="161" y="288" width="53" height="28" as="geometry" />
        </mxCell>
        <mxCell id="LWh4g69PcNr4QW9ISP9D-19" value="Да" style="text;html=1;align=center;verticalAlign=middle;whiteSpace=wrap;rounded=0;" vertex="1" parent="1">
          <mxGeometry x="71" y="253" width="60" height="30" as="geometry" />
        </mxCell>
        <mxCell id="LWh4g69PcNr4QW9ISP9D-20" value="Нет" style="text;html=1;align=center;verticalAlign=middle;whiteSpace=wrap;rounded=0;" vertex="1" parent="1">
          <mxGeometry x="129" y="212" width="60" height="30" as="geometry" />
        </mxCell>
        <mxCell id="LWh4g69PcNr4QW9ISP9D-21" style="edgeStyle=none;curved=0;rounded=0;orthogonalLoop=1;jettySize=auto;html=1;exitX=1;exitY=0.5;exitDx=0;exitDy=0;entryX=0;entryY=1;entryDx=0;entryDy=0;fontSize=12;startSize=8;endSize=8;" edge="1" parent="1" source="LWh4g69PcNr4QW9ISP9D-17" target="LWh4g69PcNr4QW9ISP9D-6">
          <mxGeometry relative="1" as="geometry">
            <Array as="points">
              <mxPoint x="214" y="185" />
              <mxPoint x="146" y="185" />
            </Array>
          </mxGeometry>
        </mxCell>
        <mxCell id="LWh4g69PcNr4QW9ISP9D-26" style="edgeStyle=none;curved=1;rounded=0;orthogonalLoop=1;jettySize=auto;html=1;exitX=0.5;exitY=1;exitDx=0;exitDy=0;entryX=0.5;entryY=0;entryDx=0;entryDy=0;fontSize=12;startSize=8;endSize=8;" edge="1" parent="1" source="LWh4g69PcNr4QW9ISP9D-22" target="LWh4g69PcNr4QW9ISP9D-25">
          <mxGeometry relative="1" as="geometry" />
        </mxCell>
        <mxCell id="LWh4g69PcNr4QW9ISP9D-22" value="Вывод y[n]" style="shape=parallelogram;perimeter=parallelogramPerimeter;whiteSpace=wrap;html=1;fixedSize=1;" vertex="1" parent="1">
          <mxGeometry x="159" y="347" width="89" height="37" as="geometry" />
        </mxCell>
        <mxCell id="LWh4g69PcNr4QW9ISP9D-24" value="Нет" style="text;html=1;align=center;verticalAlign=middle;whiteSpace=wrap;rounded=0;" vertex="1" parent="1">
          <mxGeometry x="201" y="98" width="60" height="30" as="geometry" />
        </mxCell>
        <mxCell id="LWh4g69PcNr4QW9ISP9D-25" value="Конец" style="ellipse;whiteSpace=wrap;html=1;" vertex="1" parent="1">
          <mxGeometry x="171" y="402" width="66" height="31" as="geometry" />
        </mxCell>
      </root>
    </mxGraphModel>
  </diagram>
  <diagram id="X2CLrOXM09NGx66Bx4sj" name="Циклическая свертка">
    <mxGraphModel dx="1442" dy="1015" grid="0" gridSize="10" guides="1" tooltips="1" connect="1" arrows="1" fold="1" page="0" pageScale="1" pageWidth="827" pageHeight="1169" math="0" shadow="0">
      <root>
        <mxCell id="0" />
        <mxCell id="1" parent="0" />
        <mxCell id="5qdd4Y2XkRBn7IJCzH74-3" style="edgeStyle=none;curved=1;rounded=0;orthogonalLoop=1;jettySize=auto;html=1;exitX=0.5;exitY=1;exitDx=0;exitDy=0;entryX=0.5;entryY=0;entryDx=0;entryDy=0;fontSize=12;startSize=8;endSize=8;" edge="1" parent="1" source="5qdd4Y2XkRBn7IJCzH74-1" target="5qdd4Y2XkRBn7IJCzH74-2">
          <mxGeometry relative="1" as="geometry" />
        </mxCell>
        <mxCell id="5qdd4Y2XkRBn7IJCzH74-1" value="Начало" style="ellipse;whiteSpace=wrap;html=1;" vertex="1" parent="1">
          <mxGeometry x="132" y="-90" width="59" height="38" as="geometry" />
        </mxCell>
        <mxCell id="VFvfVSpejHpBilSKvpph-2" style="edgeStyle=none;curved=1;rounded=0;orthogonalLoop=1;jettySize=auto;html=1;exitX=0.5;exitY=1;exitDx=0;exitDy=0;entryX=0.5;entryY=0;entryDx=0;entryDy=0;fontSize=12;startSize=8;endSize=8;" edge="1" parent="1" source="5qdd4Y2XkRBn7IJCzH74-2" target="VFvfVSpejHpBilSKvpph-1">
          <mxGeometry relative="1" as="geometry" />
        </mxCell>
        <mxCell id="5qdd4Y2XkRBn7IJCzH74-2" value="Ввод сигналов&lt;div&gt;x[n] и h[n]&lt;/div&gt;" style="shape=parallelogram;perimeter=parallelogramPerimeter;whiteSpace=wrap;html=1;fixedSize=1;" vertex="1" parent="1">
          <mxGeometry x="104" y="-37" width="115" height="34" as="geometry" />
        </mxCell>
        <mxCell id="VFvfVSpejHpBilSKvpph-4" style="edgeStyle=none;curved=1;rounded=0;orthogonalLoop=1;jettySize=auto;html=1;exitX=0.5;exitY=1;exitDx=0;exitDy=0;entryX=0.5;entryY=0;entryDx=0;entryDy=0;fontSize=12;startSize=8;endSize=8;" edge="1" parent="1" source="VFvfVSpejHpBilSKvpph-1" target="VFvfVSpejHpBilSKvpph-3">
          <mxGeometry relative="1" as="geometry" />
        </mxCell>
        <mxCell id="VFvfVSpejHpBilSKvpph-1" value="Инициализация переменных n=0; y[n]=0" style="rounded=0;whiteSpace=wrap;html=1;" vertex="1" parent="1">
          <mxGeometry x="107.5" y="12" width="108" height="43" as="geometry" />
        </mxCell>
        <mxCell id="VFvfVSpejHpBilSKvpph-7" style="edgeStyle=none;curved=0;rounded=0;orthogonalLoop=1;jettySize=auto;html=1;exitX=0;exitY=0.5;exitDx=0;exitDy=0;entryX=0.5;entryY=0;entryDx=0;entryDy=0;fontSize=12;startSize=8;endSize=8;" edge="1" parent="1" source="VFvfVSpejHpBilSKvpph-3" target="VFvfVSpejHpBilSKvpph-5">
          <mxGeometry relative="1" as="geometry">
            <Array as="points">
              <mxPoint x="102" y="93" />
            </Array>
          </mxGeometry>
        </mxCell>
        <mxCell id="Wklsy-ySNx-wTol7Qay0-4" style="edgeStyle=none;curved=0;rounded=0;orthogonalLoop=1;jettySize=auto;html=1;exitX=1;exitY=0.5;exitDx=0;exitDy=0;entryX=0.75;entryY=0;entryDx=0;entryDy=0;fontSize=12;startSize=8;endSize=8;" edge="1" parent="1" source="VFvfVSpejHpBilSKvpph-3" target="Wklsy-ySNx-wTol7Qay0-3">
          <mxGeometry relative="1" as="geometry">
            <Array as="points">
              <mxPoint x="299" y="93" />
              <mxPoint x="302" y="244" />
              <mxPoint x="245" y="244" />
            </Array>
          </mxGeometry>
        </mxCell>
        <mxCell id="VFvfVSpejHpBilSKvpph-3" value="n&amp;lt;N" style="rhombus;whiteSpace=wrap;html=1;" vertex="1" parent="1">
          <mxGeometry x="135" y="71" width="53" height="43" as="geometry" />
        </mxCell>
        <mxCell id="VFvfVSpejHpBilSKvpph-8" style="edgeStyle=none;curved=1;rounded=0;orthogonalLoop=1;jettySize=auto;html=1;exitX=0.5;exitY=1;exitDx=0;exitDy=0;entryX=0.5;entryY=0;entryDx=0;entryDy=0;fontSize=12;startSize=8;endSize=8;" edge="1" parent="1" source="VFvfVSpejHpBilSKvpph-5" target="VFvfVSpejHpBilSKvpph-6">
          <mxGeometry relative="1" as="geometry" />
        </mxCell>
        <mxCell id="VFvfVSpejHpBilSKvpph-5" value="y[n]=0" style="rounded=0;whiteSpace=wrap;html=1;" vertex="1" parent="1">
          <mxGeometry x="74" y="118" width="56" height="27" as="geometry" />
        </mxCell>
        <mxCell id="bsoPEfKfLZVDgSPWSHdh-6" style="edgeStyle=none;curved=1;rounded=0;orthogonalLoop=1;jettySize=auto;html=1;exitX=1;exitY=0.5;exitDx=0;exitDy=0;entryX=0;entryY=0.5;entryDx=0;entryDy=0;fontSize=12;startSize=8;endSize=8;" edge="1" parent="1" source="VFvfVSpejHpBilSKvpph-6" target="bsoPEfKfLZVDgSPWSHdh-5">
          <mxGeometry relative="1" as="geometry" />
        </mxCell>
        <mxCell id="VFvfVSpejHpBilSKvpph-6" value="k&amp;lt;M" style="rhombus;whiteSpace=wrap;html=1;" vertex="1" parent="1">
          <mxGeometry x="77" y="158" width="50" height="46" as="geometry" />
        </mxCell>
        <mxCell id="VFvfVSpejHpBilSKvpph-9" value="Да" style="text;html=1;align=center;verticalAlign=middle;whiteSpace=wrap;rounded=0;" vertex="1" parent="1">
          <mxGeometry x="88" y="65" width="60" height="30" as="geometry" />
        </mxCell>
        <mxCell id="bsoPEfKfLZVDgSPWSHdh-3" style="edgeStyle=none;curved=0;rounded=0;orthogonalLoop=1;jettySize=auto;html=1;exitX=0;exitY=0.5;exitDx=0;exitDy=0;entryX=0;entryY=0.5;entryDx=0;entryDy=0;fontSize=12;startSize=8;endSize=8;" edge="1" parent="1" source="bsoPEfKfLZVDgSPWSHdh-1" target="VFvfVSpejHpBilSKvpph-6">
          <mxGeometry relative="1" as="geometry">
            <Array as="points">
              <mxPoint x="5" y="242" />
              <mxPoint x="5" y="183" />
            </Array>
          </mxGeometry>
        </mxCell>
        <mxCell id="bsoPEfKfLZVDgSPWSHdh-1" value="y[n]+=x[k]*h[(n-k+M)mod M]&lt;div&gt;k=k+1&lt;/div&gt;" style="rounded=0;whiteSpace=wrap;html=1;" vertex="1" parent="1">
          <mxGeometry x="24" y="225" width="171" height="34" as="geometry" />
        </mxCell>
        <mxCell id="bsoPEfKfLZVDgSPWSHdh-2" style="edgeStyle=none;curved=1;rounded=0;orthogonalLoop=1;jettySize=auto;html=1;exitX=0.5;exitY=1;exitDx=0;exitDy=0;entryX=0.462;entryY=0.029;entryDx=0;entryDy=0;entryPerimeter=0;fontSize=12;startSize=8;endSize=8;" edge="1" parent="1" source="VFvfVSpejHpBilSKvpph-6" target="bsoPEfKfLZVDgSPWSHdh-1">
          <mxGeometry relative="1" as="geometry" />
        </mxCell>
        <mxCell id="bsoPEfKfLZVDgSPWSHdh-4" value="Да" style="text;html=1;align=center;verticalAlign=middle;whiteSpace=wrap;rounded=0;" vertex="1" parent="1">
          <mxGeometry x="90" y="194" width="60" height="30" as="geometry" />
        </mxCell>
        <mxCell id="Wklsy-ySNx-wTol7Qay0-1" style="edgeStyle=none;curved=0;rounded=0;orthogonalLoop=1;jettySize=auto;html=1;exitX=0.5;exitY=0;exitDx=0;exitDy=0;entryX=0.5;entryY=1;entryDx=0;entryDy=0;fontSize=12;startSize=8;endSize=8;" edge="1" parent="1" source="bsoPEfKfLZVDgSPWSHdh-5" target="VFvfVSpejHpBilSKvpph-3">
          <mxGeometry relative="1" as="geometry">
            <Array as="points">
              <mxPoint x="237" y="149" />
              <mxPoint x="162" y="149" />
            </Array>
          </mxGeometry>
        </mxCell>
        <mxCell id="bsoPEfKfLZVDgSPWSHdh-5" value="n=n+1" style="rounded=0;whiteSpace=wrap;html=1;" vertex="1" parent="1">
          <mxGeometry x="210" y="166" width="58" height="28" as="geometry" />
        </mxCell>
        <mxCell id="bsoPEfKfLZVDgSPWSHdh-7" value="Нет" style="text;html=1;align=center;verticalAlign=middle;whiteSpace=wrap;rounded=0;" vertex="1" parent="1">
          <mxGeometry x="131.5" y="158" width="60" height="30" as="geometry" />
        </mxCell>
        <mxCell id="Wklsy-ySNx-wTol7Qay0-7" style="edgeStyle=none;curved=1;rounded=0;orthogonalLoop=1;jettySize=auto;html=1;exitX=0.5;exitY=1;exitDx=0;exitDy=0;entryX=0.5;entryY=0;entryDx=0;entryDy=0;fontSize=12;startSize=8;endSize=8;" edge="1" parent="1" source="Wklsy-ySNx-wTol7Qay0-3" target="Wklsy-ySNx-wTol7Qay0-6">
          <mxGeometry relative="1" as="geometry" />
        </mxCell>
        <mxCell id="Wklsy-ySNx-wTol7Qay0-3" value="Вывод y[n]" style="shape=parallelogram;perimeter=parallelogramPerimeter;whiteSpace=wrap;html=1;fixedSize=1;" vertex="1" parent="1">
          <mxGeometry x="177" y="290" width="91" height="29" as="geometry" />
        </mxCell>
        <mxCell id="Wklsy-ySNx-wTol7Qay0-5" value="Нет" style="text;html=1;align=center;verticalAlign=middle;whiteSpace=wrap;rounded=0;" vertex="1" parent="1">
          <mxGeometry x="210" y="69" width="60" height="30" as="geometry" />
        </mxCell>
        <mxCell id="Wklsy-ySNx-wTol7Qay0-6" value="Конец" style="ellipse;whiteSpace=wrap;html=1;" vertex="1" parent="1">
          <mxGeometry x="193" y="333" width="59" height="30" as="geometry" />
        </mxCell>
      </root>
    </mxGraphModel>
  </diagram>
</mxfile>
